<svg width="25" height="25" viewBox="0 0 25 25" fill="none" xmlns="http://www.w3.org/2000/svg">
<path d="M13.5418 9.37565H11.4585V7.29232H13.5418M13.5418 17.709H11.4585V11.459H13.5418M12.5002 2.08398C11.1322 2.08398 9.77769 2.35342 8.51388 2.87691C7.25007 3.40039 6.10174 4.16768 5.13447 5.13496C3.18096 7.08846 2.0835 9.73798 2.0835 12.5007C2.0835 15.2633 3.18096 17.9128 5.13447 19.8663C6.10174 20.8336 7.25007 21.6009 8.51388 22.1244C9.77769 22.6479 11.1322 22.9173 12.5002 22.9173C15.2628 22.9173 17.9124 21.8199 19.8659 19.8663C21.8194 17.9128 22.9168 15.2633 22.9168 12.5007C22.9168 11.1327 22.6474 9.77817 22.1239 8.51437C21.6004 7.25056 20.8331 6.10223 19.8659 5.13496C18.8986 4.16768 17.7503 3.40039 16.4865 2.87691C15.2226 2.35342 13.8681 2.08398 12.5002 2.08398Z" fill="#3C3C3C"/>
</svg>
