<svg width="26" height="26" viewBox="0 0 26 26" fill="none" xmlns="http://www.w3.org/2000/svg">
<g clip-path="url(#clip0_602_189)">
<path d="M12.9998 14.0827C13.5981 14.0827 14.0832 13.5977 14.0832 12.9993C14.0832 12.401 13.5981 11.916 12.9998 11.916C12.4015 11.916 11.9165 12.401 11.9165 12.9993C11.9165 13.5977 12.4015 14.0827 12.9998 14.0827Z" fill="black"/>
<path d="M17.3333 14.0827C17.9316 14.0827 18.4167 13.5977 18.4167 12.9993C18.4167 12.401 17.9316 11.916 17.3333 11.916C16.735 11.916 16.25 12.401 16.25 12.9993C16.25 13.5977 16.735 14.0827 17.3333 14.0827Z" fill="black"/>
<path d="M8.66683 14.0827C9.26514 14.0827 9.75016 13.5977 9.75016 12.9993C9.75016 12.401 9.26514 11.916 8.66683 11.916C8.06852 11.916 7.5835 12.401 7.5835 12.9993C7.5835 13.5977 8.06852 14.0827 8.66683 14.0827Z" fill="black"/>
<path d="M20.6592 5.34057C18.8817 3.55145 16.5356 2.43855 14.0255 2.19375C11.5154 1.94895 8.99855 2.58758 6.90884 3.99955C4.81913 5.41151 3.28753 7.50833 2.57808 9.9285C1.86864 12.3487 2.02581 14.9405 3.02251 17.2572C3.12639 17.4726 3.16047 17.7149 3.12001 17.9506L2.16667 22.5331C2.12994 22.7088 2.13744 22.8908 2.1885 23.0629C2.23955 23.235 2.33257 23.3917 2.45917 23.5189C2.56296 23.6219 2.68654 23.7029 2.82245 23.7569C2.95837 23.8109 3.10381 23.8368 3.25001 23.8331H3.46667L8.10334 22.9014C8.339 22.8731 8.57797 22.9067 8.79667 22.9989C11.1134 23.9956 13.7052 24.1528 16.1254 23.4433C18.5456 22.7339 20.6424 21.2023 22.0544 19.1126C23.4663 17.0229 24.105 14.506 23.8602 11.9959C23.6154 9.4858 22.5025 7.13976 20.7133 5.36224L20.6592 5.34057ZM21.5583 14.3972C21.3465 15.6907 20.8441 16.9193 20.0889 17.9906C19.3336 19.0618 18.3452 19.9478 17.1981 20.5818C16.0509 21.2159 14.7749 21.5815 13.4661 21.6511C12.1572 21.7208 10.8496 21.4927 9.64167 20.9839C9.21326 20.8017 8.75305 20.706 8.28751 20.7022C8.08414 20.7037 7.88124 20.7218 7.68084 20.7564L4.62584 21.3739L5.24334 18.3189C5.36632 17.6573 5.28704 16.974 5.01584 16.3581C4.5071 15.1501 4.27896 13.8425 4.34861 12.5337C4.41825 11.2248 4.78386 9.9488 5.41791 8.80166C6.05197 7.65452 6.93795 6.66614 8.00919 5.91089C9.08043 5.15565 10.309 4.65322 11.6025 4.44141C12.9602 4.21858 14.3515 4.32221 15.6612 4.74372C16.9709 5.16523 18.1614 5.89251 19.1343 6.8654C20.1072 7.83829 20.8345 9.02884 21.256 10.3386C21.6775 11.6483 21.7812 13.0395 21.5583 14.3972Z" fill="black"/>
</g>
<defs>
<clipPath id="clip0_602_189">
<rect width="26" height="26" fill="white"/>
</clipPath>
</defs>
</svg>
