<svg width="25" height="25" viewBox="0 0 25 25" fill="none" xmlns="http://www.w3.org/2000/svg">
<path d="M12.5 14.0625C13.3629 14.0625 14.0625 13.3629 14.0625 12.5C14.0625 11.6371 13.3629 10.9375 12.5 10.9375C11.6371 10.9375 10.9375 11.6371 10.9375 12.5C10.9375 13.3629 11.6371 14.0625 12.5 14.0625Z" fill="black" fill-opacity="0.3"/>
<path d="M22.7813 11.9794C22.1146 10.8231 18.4479 5.02105 12.2188 5.20855C6.45836 5.35438 3.12503 10.4169 2.21878 11.9794C2.12736 12.1377 2.07922 12.3174 2.07922 12.5002C2.07922 12.6831 2.12736 12.8627 2.21878 13.021C2.87503 14.1565 6.38545 19.7919 12.5209 19.7919H12.7813C18.5417 19.646 21.8854 14.5835 22.7813 13.021C22.8727 12.8627 22.9208 12.6831 22.9208 12.5002C22.9208 12.3174 22.8727 12.1377 22.7813 11.9794ZM12.5 16.146C11.779 16.146 11.0741 15.9322 10.4745 15.5316C9.87496 15.131 9.40766 14.5616 9.13172 13.8954C8.85577 13.2292 8.78357 12.4962 8.92425 11.7889C9.06493 11.0817 9.41216 10.4321 9.92204 9.92222C10.4319 9.41234 11.0815 9.06511 11.7888 8.92443C12.496 8.78376 13.229 8.85596 13.8952 9.1319C14.5614 9.40785 15.1308 9.87514 15.5314 10.4747C15.932 11.0742 16.1459 11.7791 16.1459 12.5002C16.1459 13.4671 15.7618 14.3945 15.078 15.0782C14.3943 15.7619 13.467 16.146 12.5 16.146Z" fill="black" fill-opacity="0.3"/>
</svg>
