<svg width="40" height="40" viewBox="0 0 40 40" fill="none" xmlns="http://www.w3.org/2000/svg">
<path d="M34.8335 3.33398H5.16683C4.6806 3.33398 4.21428 3.52714 3.87047 3.87096C3.52665 4.21477 3.3335 4.68109 3.3335 5.16732V34.834C3.3335 35.3202 3.52665 35.7865 3.87047 36.1303C4.21428 36.4742 4.6806 36.6673 5.16683 36.6673H21.1335V23.7507H16.8002V18.7507H21.1335V15.0007C21.0437 14.1202 21.1477 13.2309 21.438 12.3949C21.7284 11.5589 22.1981 10.7966 22.8143 10.1613C23.4304 9.52611 24.1781 9.03339 25.0049 8.71771C25.8316 8.40204 26.7174 8.27107 27.6002 8.33398C28.8974 8.326 30.194 8.39278 31.4835 8.53398V13.034H28.8335C26.7335 13.034 26.3335 14.034 26.3335 15.484V18.7007H31.3335L30.6835 23.7007H26.3335V36.6673H34.8335C35.0743 36.6673 35.3127 36.6199 35.5351 36.5278C35.7575 36.4356 35.9596 36.3006 36.1299 36.1303C36.3001 35.9601 36.4351 35.758 36.5273 35.5356C36.6194 35.3131 36.6668 35.0747 36.6668 34.834V5.16732C36.6668 4.92656 36.6194 4.68816 36.5273 4.46573C36.4351 4.2433 36.3001 4.0412 36.1299 3.87096C35.9596 3.70071 35.7575 3.56567 35.5351 3.47354C35.3127 3.38141 35.0743 3.33398 34.8335 3.33398Z" fill="black"/>
</svg>
