
<svg width="22" height="22" viewBox="0 0 22 22" fill="none" xmlns="http://www.w3.org/2000/svg">
<g clip-path="url(#clip0_137_237)">
<path d="M10.9999 19.2509C10.8793 19.2516 10.7597 19.2284 10.648 19.1828C10.5363 19.1372 10.4347 19.07 10.3491 18.985L3.22659 11.8534C2.33317 10.9506 1.83203 9.73181 1.83203 8.4617C1.83203 7.1916 2.33317 5.97279 3.22659 5.07004C4.127 4.17217 5.34669 3.66797 6.61826 3.66797C7.88983 3.66797 9.10952 4.17217 10.0099 5.07004L10.9999 6.06004L11.9899 5.07004C12.8903 4.17217 14.11 3.66797 15.3816 3.66797C16.6532 3.66797 17.8729 4.17217 18.7733 5.07004C19.6667 5.97279 20.1678 7.1916 20.1678 8.4617C20.1678 9.73181 19.6667 10.9506 18.7733 11.8534L11.6508 18.985C11.5651 19.07 11.4635 19.1372 11.3518 19.1828C11.2402 19.2284 11.1206 19.2516 10.9999 19.2509Z" fill="black" fill-opacity="0.3"/>
</g>
<defs>
<clipPath id="clip0_137_237">
<rect width="22" height="22" fill="white"/>
</clipPath>
</defs>
</svg>
