<svg width="21" height="21" viewBox="0 0 21 21" fill="none" xmlns="http://www.w3.org/2000/svg">
<path d="M10.4999 18.3746C10.3848 18.3753 10.2706 18.3532 10.164 18.3096C10.0574 18.2661 9.96046 18.2019 9.8787 18.1208L3.07995 11.3133C2.22714 10.4516 1.74878 9.28821 1.74878 8.07584C1.74878 6.86347 2.22714 5.70006 3.07995 4.83834C3.93943 3.98128 5.10368 3.5 6.31745 3.5C7.53122 3.5 8.69547 3.98128 9.55495 4.83834L10.4999 5.78334L11.4449 4.83834C12.3044 3.98128 13.4687 3.5 14.6824 3.5C15.8962 3.5 17.0605 3.98128 17.9199 4.83834C18.7728 5.70006 19.2511 6.86347 19.2511 8.07584C19.2511 9.28821 18.7728 10.4516 17.9199 11.3133L11.1212 18.1208C11.0394 18.2019 10.9425 18.2661 10.8359 18.3096C10.7293 18.3532 10.6151 18.3753 10.4999 18.3746Z" fill="black" fill-opacity="0.3"/>
</svg>
