<svg width="26" height="26" viewBox="0 0 26 26" fill="none" xmlns="http://www.w3.org/2000/svg">
<g clip-path="url(#clip0_602_204)">
<path d="M12.9998 2.16602C10.8572 2.16602 8.7627 2.80138 6.98116 3.99176C5.19963 5.18214 3.8111 6.87408 2.99115 8.85361C2.1712 10.8331 1.95666 13.0114 2.37467 15.1128C2.79267 17.2143 3.82445 19.1446 5.33952 20.6597C6.85459 22.1747 8.7849 23.2065 10.8864 23.6245C12.9878 24.0425 15.166 23.828 17.1456 23.008C19.1251 22.1881 20.817 20.7996 22.0074 19.018C23.1978 17.2365 23.8332 15.142 23.8332 12.9993C23.8332 11.5767 23.553 10.168 23.0085 8.85361C22.4641 7.53925 21.6661 6.34499 20.6602 5.33903C19.6542 4.33306 18.4599 3.53508 17.1456 2.99065C15.8312 2.44623 14.4225 2.16602 12.9998 2.16602V2.16602ZM12.9998 21.666C11.2857 21.666 9.61013 21.1577 8.1849 20.2054C6.75967 19.2531 5.64885 17.8996 4.99289 16.3159C4.33693 14.7323 4.1653 12.9897 4.4997 11.3086C4.83411 9.6274 5.65953 8.08315 6.87158 6.87109C8.08364 5.65904 9.62789 4.83362 11.3091 4.49921C12.9902 4.1648 14.7328 4.33643 16.3164 4.99239C17.9001 5.64835 19.2536 6.75918 20.2059 8.18441C21.1582 9.60963 21.6665 11.2852 21.6665 12.9993C21.6665 15.2979 20.7534 17.5023 19.1281 19.1276C17.5028 20.7529 15.2984 21.666 12.9998 21.666V21.666Z" fill="black"/>
<path d="M12.9998 9.75065C13.5981 9.75065 14.0832 9.26563 14.0832 8.66732C14.0832 8.06901 13.5981 7.58398 12.9998 7.58398C12.4015 7.58398 11.9165 8.06901 11.9165 8.66732C11.9165 9.26563 12.4015 9.75065 12.9998 9.75065Z" fill="black"/>
<path d="M12.9998 10.834C12.7125 10.834 12.437 10.9481 12.2338 11.1513C12.0306 11.3544 11.9165 11.63 11.9165 11.9173V17.334C11.9165 17.6213 12.0306 17.8969 12.2338 18.1C12.437 18.3032 12.7125 18.4173 12.9998 18.4173C13.2872 18.4173 13.5627 18.3032 13.7659 18.1C13.969 17.8969 14.0832 17.6213 14.0832 17.334V11.9173C14.0832 11.63 13.969 11.3544 13.7659 11.1513C13.5627 10.9481 13.2872 10.834 12.9998 10.834Z" fill="black"/>
</g>
<defs>
<clipPath id="clip0_602_204">
<rect width="26" height="26" fill="white"/>
</clipPath>
</defs>
</svg>
