<svg width="40" height="40" viewBox="0 0 40 40" fill="none" xmlns="http://www.w3.org/2000/svg">
<path d="M8.43228 26.8437C7.40928 24.5691 8.32781 21.871 10.3757 20.4371L14.3759 17.6361C15.0858 17.139 15.2618 16.1409 14.7647 15.4309C14.2676 14.721 13.2695 14.545 12.5596 15.0421L8.69589 17.7475C5.13258 20.2425 3.77743 25.0776 5.92161 28.8662C6.49088 29.8801 7.26622 30.7635 8.19769 31.4595C9.12917 32.1555 10.1961 32.6486 11.3298 32.9071C12.4634 33.1656 13.6387 33.1838 14.7798 32.9605C15.9209 32.7371 17.0026 32.2772 17.9551 31.6103L22.1192 28.6946C22.8291 28.1975 23.0051 27.1994 22.508 26.4895C22.0109 25.7796 21.0128 25.6036 20.3028 26.1007L16.1388 29.0163C15.5104 29.4535 14.7929 29.746 14.0379 29.8729C13.283 29.9998 12.5093 29.9579 11.7724 29.7501C11.0356 29.5424 10.3539 29.174 9.77641 28.6715C9.19888 28.169 8.73984 27.5448 8.43228 26.8437ZM16.8618 24.2374L25.0533 18.5016C25.8042 17.9758 25.9884 16.9313 25.4626 16.1804C24.9368 15.4295 23.8923 15.2453 23.1414 15.7711L14.9499 21.5069C14.199 22.0327 14.0148 23.0772 14.5406 23.8281C15.0664 24.579 16.1109 24.7632 16.8618 24.2374ZM21.7477 8.60849L17.884 11.3139C17.1741 11.811 16.9981 12.8091 17.4952 13.519C17.9923 14.2289 18.9904 14.4049 19.7004 13.9078L23.7006 11.1069C25.7484 9.67294 28.598 9.73262 30.3856 11.4719C30.9391 12.0007 31.3687 12.6455 31.6434 13.3601C31.9181 14.0747 32.0311 14.8412 31.9743 15.6046C31.9175 16.3681 31.6923 17.1095 31.3148 17.7755C30.9374 18.4415 30.4171 19.0157 29.7914 19.4567L25.6273 22.3724C24.9174 22.8695 24.7414 23.8676 25.2385 24.5776C25.7356 25.2875 26.7337 25.4635 27.4437 24.9664L31.6077 22.0507C35.5942 19.2593 36.3895 13.5956 33.1584 9.79479C30.3316 6.48412 25.311 6.11344 21.7477 8.60849Z" fill="black"/>
</svg>
