<svg width="30" height="30" viewBox="0 0 30 30" fill="none" xmlns="http://www.w3.org/2000/svg">
<path d="M15.0024 26.3009C11.9274 26.3009 11.5649 26.2846 10.3649 26.2321C9.42915 26.2014 8.50548 26.0111 7.63369 25.6696C6.88767 25.3793 6.21017 24.937 5.64422 24.3708C5.07827 23.8047 4.63623 23.127 4.34619 22.3809C4.01782 21.5059 3.84071 20.5815 3.82244 19.6471C3.75244 18.4496 3.75244 18.0571 3.75244 15.0059C3.75244 11.9221 3.76869 11.5621 3.82244 10.3684C3.84111 9.43526 4.01822 8.51212 4.34619 7.63836C4.6359 6.89128 5.07823 6.21283 5.64493 5.64634C6.21164 5.07986 6.89025 4.63778 7.63744 4.34836C8.51075 4.01861 9.43412 3.84104 10.3674 3.82336C11.5612 3.75586 11.9537 3.75586 15.0024 3.75586C18.1024 3.75586 18.4587 3.77211 19.6399 3.82336C20.5749 3.84086 21.5024 4.01836 22.3774 4.34836C23.1244 4.63812 23.8029 5.08031 24.3695 5.64676C24.9362 6.2132 25.3786 6.89147 25.6687 7.63836C26.0024 8.52586 26.1812 9.46336 26.1949 10.4096C26.2649 11.6071 26.2649 11.9984 26.2649 15.0484C26.2649 18.0984 26.2474 18.4984 26.1949 19.6821C26.1763 20.6174 25.9987 21.5426 25.6699 22.4184C25.3792 23.165 24.9363 23.8431 24.3695 24.4094C23.8027 24.9758 23.1243 25.4181 22.3774 25.7084C21.5024 26.0359 20.5787 26.2134 19.6449 26.2321C18.4512 26.3009 18.0599 26.3009 15.0024 26.3009ZM14.9599 5.73461C11.9024 5.73461 11.5849 5.74961 10.3912 5.80336C9.67825 5.81268 8.97219 5.94417 8.30369 6.19211C7.81611 6.379 7.37309 6.666 7.00321 7.03459C6.63333 7.40317 6.34479 7.84518 6.15619 8.33211C5.90619 9.00711 5.77494 9.72086 5.76744 10.4409C5.70119 11.6521 5.70119 11.9696 5.70119 15.0059C5.70119 18.0059 5.71244 18.3696 5.76744 19.5734C5.77869 20.2859 5.90994 20.9921 6.15619 21.6609C6.53869 22.6446 7.31869 23.4221 8.30494 23.7996C8.97258 24.0491 9.6785 24.1806 10.3912 24.1884C11.6012 24.2584 11.9199 24.2584 14.9599 24.2584C18.0262 24.2584 18.3437 24.2434 19.5274 24.1884C20.2404 24.1797 20.9466 24.0482 21.6149 23.7996C22.0999 23.6113 22.5404 23.3241 22.9084 22.9563C23.2764 22.5886 23.5638 22.1482 23.7524 21.6634C24.0024 20.9884 24.1337 20.2734 24.1412 19.5534H24.1549C24.2087 18.3584 24.2087 18.0396 24.2087 14.9859C24.2087 11.9321 24.1949 11.6109 24.1412 10.4171C24.1299 9.70518 23.9985 9.00027 23.7524 8.33211C23.5643 7.84654 23.277 7.40549 22.909 7.03705C22.541 6.6686 22.1003 6.38085 21.6149 6.19211C20.9468 5.94296 20.2405 5.81144 19.5274 5.80336C18.3187 5.73461 18.0024 5.73461 14.9599 5.73461ZM15.0024 20.7796C13.8594 20.7804 12.7418 20.4421 11.791 19.8076C10.8403 19.1732 10.099 18.271 9.66102 17.2152C9.22303 16.1594 9.10798 14.9974 9.33043 13.8762C9.55288 12.7551 10.1028 11.725 10.9107 10.9164C11.7186 10.1078 12.7482 9.55699 13.8692 9.33358C14.9902 9.11016 16.1522 9.2242 17.2084 9.66127C18.2646 10.0984 19.1674 10.8388 19.8027 11.7891C20.438 12.7393 20.7772 13.8566 20.7774 14.9996C20.7755 16.5311 20.1665 17.9993 19.0841 19.0827C18.0016 20.1661 16.5339 20.7763 15.0024 20.7796ZM15.0024 11.2471C14.2608 11.2471 13.5357 11.467 12.9191 11.8791C12.3024 12.2912 11.8217 12.8768 11.5379 13.562C11.2541 14.2473 11.1798 15.0013 11.3245 15.7287C11.4692 16.4561 11.8263 17.1243 12.3508 17.6488C12.8752 18.1732 13.5434 18.5304 14.2709 18.6751C14.9983 18.8197 15.7523 18.7455 16.4375 18.4617C17.1227 18.1778 17.7084 17.6972 18.1205 17.0805C18.5325 16.4638 18.7524 15.7388 18.7524 14.9971C18.7501 14.0033 18.3543 13.0508 17.6515 12.348C16.9488 11.6453 15.9963 11.2494 15.0024 11.2471ZM21.0024 10.3559C20.8255 10.3552 20.6504 10.3197 20.4872 10.2514C20.3239 10.183 20.1757 10.0832 20.0511 9.95765C19.7993 9.70401 19.6586 9.36074 19.6599 9.00336C19.6613 8.64598 19.8045 8.30376 20.0582 8.052C20.3118 7.80023 20.6551 7.65953 21.0124 7.66086C21.3698 7.66219 21.712 7.80543 21.9638 8.05907C22.2156 8.31271 22.3563 8.65598 22.3549 9.01336C22.3536 9.37074 22.2104 9.71295 21.9567 9.96472C21.7031 10.2165 21.3598 10.3572 21.0024 10.3559Z" fill="black"/>
</svg>
