<svg width="25" height="25" viewBox="0 0 25 25" fill="none" xmlns="http://www.w3.org/2000/svg">
<path d="M12.4998 12.5007C13.0728 12.5007 13.5634 12.2965 13.9717 11.8882C14.3794 11.4805 14.5832 10.9902 14.5832 10.4173C14.5832 9.8444 14.3794 9.35378 13.9717 8.94544C13.5634 8.5378 13.0728 8.33398 12.4998 8.33398C11.9269 8.33398 11.4366 8.5378 11.029 8.94544C10.6207 9.35378 10.4165 9.8444 10.4165 10.4173C10.4165 10.9902 10.6207 11.4805 11.029 11.8882C11.4366 12.2965 11.9269 12.5007 12.4998 12.5007ZM12.4998 22.9173C9.7047 20.5388 7.6172 18.3295 6.23734 16.2892C4.85678 14.2496 4.1665 12.3618 4.1665 10.6257C4.1665 8.02148 5.00435 5.94683 6.68005 4.40169C8.35505 2.85655 10.295 2.08398 12.4998 2.08398C14.7047 2.08398 16.6446 2.85655 18.3196 4.40169C19.9953 5.94683 20.8332 8.02148 20.8332 10.6257C20.8332 12.3618 20.1432 14.2496 18.7634 16.2892C17.3828 18.3295 15.295 20.5388 12.4998 22.9173Z" fill="#3C3C3C"/>
</svg>
