<svg width="30" height="30" viewBox="0 0 30 30" fill="none" xmlns="http://www.w3.org/2000/svg">
<path d="M7.0625 12.5316L9.5 13.5628C9.79167 12.9795 10.0937 12.417 10.4062 11.8753C10.7188 11.3336 11.0625 10.792 11.4375 10.2503L9.6875 9.90657L7.0625 12.5316ZM11.5 15.1253L15.0625 18.6566C15.9375 18.3232 16.875 17.8128 17.875 17.1253C18.875 16.4378 19.8125 15.6566 20.6875 14.7816C22.1458 13.3232 23.2867 11.7036 24.11 9.92282C24.9325 8.14115 25.2917 6.50031 25.1875 5.00031C23.6875 4.89615 22.0417 5.25532 20.25 6.07782C18.4583 6.90115 16.8333 8.04198 15.375 9.50031C14.5 10.3753 13.7188 11.3128 13.0312 12.3128C12.3438 13.3128 11.8333 14.2503 11.5 15.1253ZM17.0625 13.0941C16.5833 12.6149 16.3438 12.0261 16.3438 11.3278C16.3438 10.6303 16.5833 10.042 17.0625 9.56281C17.5417 9.08365 18.1354 8.84406 18.8438 8.84406C19.5521 8.84406 20.1458 9.08365 20.625 9.56281C21.1042 10.042 21.3438 10.6303 21.3438 11.3278C21.3438 12.0261 21.1042 12.6149 20.625 13.0941C20.1458 13.5732 19.5521 13.8128 18.8438 13.8128C18.1354 13.8128 17.5417 13.5732 17.0625 13.0941ZM17.6562 23.1253L20.2812 20.5003L19.9375 18.7503C19.3958 19.1253 18.8542 19.4636 18.3125 19.7653C17.7708 20.0678 17.2083 20.3649 16.625 20.6566L17.6562 23.1253ZM27.4375 2.71906C27.8333 5.2399 27.5888 7.69282 26.7038 10.0778C25.8179 12.4636 24.2917 14.7399 22.125 16.9066L22.75 20.0003C22.8333 20.417 22.8125 20.8232 22.6875 21.2191C22.5625 21.6149 22.3542 21.9586 22.0625 22.2503L16.8125 27.5003L14.1875 21.3441L8.84375 16.0003L2.6875 13.3753L7.90625 8.12531C8.19792 7.83365 8.54708 7.62532 8.95375 7.50032C9.35958 7.37532 9.77083 7.35448 10.1875 7.43781L13.2812 8.06281C15.4479 5.89615 17.7188 4.3649 20.0938 3.46907C22.4688 2.57323 24.9167 2.32323 27.4375 2.71906ZM4.90625 19.9691C5.63542 19.2399 6.52583 18.8699 7.5775 18.8591C8.63 18.8491 9.52083 19.2086 10.25 19.9378C10.9792 20.667 11.3383 21.5574 11.3275 22.6091C11.3175 23.6616 10.9479 24.5524 10.2188 25.2816C9.69792 25.8024 8.82833 26.2503 7.61 26.6253C6.39083 27.0003 4.70833 27.3336 2.5625 27.6253C2.85417 25.4795 3.1875 23.797 3.5625 22.5778C3.9375 21.3595 4.38542 20.4899 4.90625 19.9691ZM6.6875 21.7191C6.47917 21.9274 6.27083 22.3078 6.0625 22.8603C5.85417 23.412 5.70833 23.9691 5.625 24.5316C6.1875 24.4482 6.745 24.3078 7.2975 24.1103C7.84917 23.912 8.22917 23.7086 8.4375 23.5003C8.6875 23.2503 8.82292 22.9482 8.84375 22.5941C8.86458 22.2399 8.75 21.9378 8.5 21.6878C8.25 21.4378 7.94792 21.3178 7.59375 21.3278C7.23958 21.3386 6.9375 21.4691 6.6875 21.7191Z" fill="black"/>
</svg>
