<svg width="26" height="26" viewBox="0 0 26 26" fill="none" xmlns="http://www.w3.org/2000/svg">
<g clip-path="url(#clip0_602_198)">
<path d="M19.5001 16.2507C18.649 16.2514 17.8322 16.5859 17.2251 17.1824L8.66674 13.369V13.0007V12.6432L17.2251 8.81902C17.7611 9.34445 18.4625 9.66814 19.2102 9.7351C19.9578 9.80205 20.7056 9.60816 21.3264 9.18634C21.9473 8.76452 22.4031 8.14079 22.6162 7.42107C22.8294 6.70136 22.7869 5.93004 22.4959 5.23812C22.2049 4.5462 21.6834 3.97633 21.0199 3.62531C20.3564 3.27429 19.5919 3.16376 18.8561 3.31249C18.1204 3.46121 17.4588 3.86003 16.9838 4.4412C16.5087 5.02237 16.2495 5.75006 16.2501 6.50068V6.86902L7.69174 10.6824C7.23497 10.2336 6.6558 9.92975 6.02695 9.809C5.3981 9.68824 4.74758 9.75594 4.15707 10.0036C3.56657 10.2513 3.06238 10.6679 2.7078 11.2011C2.35322 11.7343 2.16406 12.3603 2.16406 13.0007C2.16406 13.641 2.35322 14.2671 2.7078 14.8003C3.06238 15.3335 3.56657 15.7501 4.15707 15.9978C4.74758 16.2454 5.3981 16.3131 6.02695 16.1924C6.6558 16.0716 7.23497 15.7678 7.69174 15.319L16.2501 19.1432V19.5007C16.2501 20.1435 16.4407 20.7718 16.7978 21.3063C17.1549 21.8407 17.6625 22.2573 18.2564 22.5033C18.8502 22.7493 19.5037 22.8136 20.1341 22.6882C20.7646 22.5628 21.3437 22.2533 21.7982 21.7988C22.2527 21.3443 22.5622 20.7652 22.6876 20.1347C22.813 19.5043 22.7487 18.8508 22.5027 18.257C22.2567 17.6631 21.8401 17.1555 21.3057 16.7984C20.7712 16.4413 20.1429 16.2507 19.5001 16.2507ZM19.5001 5.41735C19.7143 5.41735 19.9238 5.48089 20.1019 5.59993C20.2801 5.71896 20.419 5.88816 20.5009 6.08611C20.5829 6.28406 20.6044 6.50189 20.5626 6.71203C20.5208 6.92218 20.4176 7.11521 20.2661 7.26672C20.1146 7.41822 19.9216 7.5214 19.7114 7.5632C19.5013 7.605 19.2835 7.58355 19.0855 7.50155C18.8876 7.41956 18.7184 7.2807 18.5993 7.10255C18.4803 6.9244 18.4167 6.71495 18.4167 6.50068C18.4167 6.21337 18.5309 5.93782 18.734 5.73465C18.9372 5.53149 19.2128 5.41735 19.5001 5.41735ZM5.41674 14.084C5.20248 14.084 4.99303 14.0205 4.81488 13.9014C4.63672 13.7824 4.49787 13.6132 4.41587 13.4153C4.33388 13.2173 4.31243 12.9995 4.35423 12.7893C4.39603 12.5792 4.4992 12.3862 4.65071 12.2347C4.80222 12.0831 4.99525 11.98 5.2054 11.9382C5.41554 11.8964 5.63336 11.9178 5.83132 11.9998C6.02927 12.0818 6.19846 12.2207 6.3175 12.3988C6.43654 12.577 6.50008 12.7864 6.50008 13.0007C6.50008 13.288 6.38594 13.5636 6.18278 13.7667C5.97961 13.9699 5.70406 14.084 5.41674 14.084ZM19.5001 20.584C19.2858 20.584 19.0764 20.5205 18.8982 20.4014C18.7201 20.2824 18.5812 20.1132 18.4992 19.9153C18.4172 19.7173 18.3958 19.4995 18.4376 19.2893C18.4794 19.0792 18.5825 18.8862 18.734 18.7347C18.8856 18.5831 19.0786 18.48 19.2887 18.4382C19.4989 18.3964 19.7167 18.4178 19.9147 18.4998C20.1126 18.5818 20.2818 18.7207 20.4008 18.8988C20.5199 19.077 20.5834 19.2864 20.5834 19.5007C20.5834 19.788 20.4693 20.0636 20.2661 20.2667C20.0629 20.4699 19.7874 20.584 19.5001 20.584Z" fill="black"/>
</g>
<defs>
<clipPath id="clip0_602_198">
<rect width="26" height="26" fill="white"/>
</clipPath>
</defs>
</svg>
