<svg width="40" height="40" viewBox="0 0 40 40" fill="none" xmlns="http://www.w3.org/2000/svg">
<path d="M37.4336 9.99935C36.1502 10.5827 34.7669 10.966 33.3336 11.1493C34.8002 10.266 35.9336 8.86602 36.4669 7.18268C35.0836 8.01602 33.5502 8.59935 31.9336 8.93268C30.6169 7.49935 28.7669 6.66602 26.6669 6.66602C22.7502 6.66602 19.5502 9.86602 19.5502 13.816C19.5502 14.3827 19.6169 14.9327 19.7336 15.4494C13.8002 15.1494 8.51689 12.2993 5.00023 7.98268C4.38356 9.03268 4.03356 10.266 4.03356 11.566C4.03356 14.0493 5.28356 16.2493 7.21689 17.4993C6.03356 17.4993 4.93356 17.166 3.96689 16.666V16.716C3.96689 20.1827 6.43356 23.0827 9.70023 23.7327C8.65144 24.0197 7.55039 24.0596 6.48356 23.8493C6.93624 25.2701 7.82279 26.5134 9.01859 27.4042C10.2144 28.2951 11.6593 28.7888 13.1502 28.816C10.6229 30.8167 7.49022 31.8982 4.26689 31.8827C3.70023 31.8827 3.13356 31.8493 2.56689 31.7827C5.73356 33.816 9.50023 34.9993 13.5336 34.9993C26.6669 34.9993 33.8836 24.0993 33.8836 14.6493C33.8836 14.3327 33.8836 14.0327 33.8669 13.716C35.2669 12.716 36.4669 11.4493 37.4336 9.99935Z" fill="black"/>
</svg>
